<svg width="12" height="11" viewBox="0 0 12 11" fill="none" xmlns="http://www.w3.org/2000/svg">
<path d="M11.2787 6.98509C11.2296 6.99306 11.1799 6.99673 11.1302 6.99609L2.66446 6.99609L2.84906 7.08195C3.0295 7.16735 3.19365 7.28359 3.33417 7.42539L5.70818 9.7994C6.02084 10.0979 6.07338 10.578 5.83267 10.937C5.55253 11.3196 5.01529 11.4027 4.63268 11.1225C4.60177 11.0999 4.57239 11.0752 4.54478 11.0487L0.251816 6.75568C-0.0836792 6.42056 -0.0839744 5.87694 0.251145 5.54145C0.25136 5.54123 0.251602 5.54099 0.251816 5.54077L4.54478 1.24781C4.88055 0.912982 5.42417 0.913733 5.75902 1.2495C5.78537 1.27592 5.80998 1.30404 5.83267 1.33367C6.07338 1.69269 6.02084 2.17283 5.70818 2.4713L3.33846 4.84961C3.21249 4.97571 3.06765 5.08145 2.90916 5.16299L2.65159 5.2789L11.083 5.2789C11.5216 5.26262 11.9064 5.569 11.9888 6.00012C12.0647 6.46819 11.7468 6.90916 11.2787 6.98509Z" fill="white"/>
</svg>
